<?xml version="1.0" encoding="UTF-8" standalone="no"?>
<svg xmlns="http://www.w3.org/2000/svg"
   xmlns:dc="http://purl.org/dc/elements/1.1/"
   xmlns:cc="http://creativecommons.org/ns#"
   xmlns:rdf="http://www.w3.org/1999/02/22-rdf-syntax-ns#"
   xmlns:sodipodi="http://sodipodi.sourceforge.net/DTD/sodipodi-0.dtd"
   xmlns:inkscape="http://www.inkscape.org/namespaces/inkscape"
   width="317" height="357" viewBox="-1 -1 70.469231 79.361313"
   version="1.0">
  <metadata>
    <rdf:RDF>
      <cc:Work rdf:about="">
        <dc:format>image/svg+xml</dc:format>
        <dc:type rdf:resource="http://purl.org/dc/dcmitype/StillImage"/>
      </cc:Work>
    </rdf:RDF>
  </metadata>
  <g
     inkscape:label="Capa 1"
     inkscape:groupmode="layer"
     id="layer1"
     transform="translate(-229.46423,-499.56052)">
    <g transform="translate(-11.428571,-23.214286)">
       id="g3338">
      <ellipse
         id="path2414"
         cx="268.75" cy="541.64789"
         rx="6.9642859" ry="6.4285712"
         transform="matrix(0.8536418,0,0,0.9240975,38.931978,41.339286)"/>
      <path
         d="M 264.91072,565.30861 C 264.87646,567.70698 264.89695,567.93222 267.67858,568.34432 L 277.32143,569.7729 C 279.84229,570.14636 280.37645,565.11198 277.94643,564.7729 L 270.26786,563.70146 L 270.26786,552.09433 L 258.48214,544.1479 L 243.48214,544.32647 C 241.03866,544.35556 241.00557,544.47964 240.98214,547.36218 L 240.89286,558.34432 C 240.87214,560.89348 246.27988,561.48071 246.25,558.43361 L 246.16071,549.32647 L 253.83928,550.04076 L 246.60714,560.21932 L 258.75,568.70146 L 265,559.05861 z"
         id="path2416"
         sodipodi:nodetypes="cssscccsssscccccs"/>
      <path
         d="M 245.53571,561.73718 L 268.30357,577.63004 C 270.7632,579.68361 270.7772,579.68361 268.39286,583.5229 L 262.14286,597.00504 C 260.15582,600.06405 255.5164,597.07634 256.78571,594.1479 L 263.39286,581.6479 L 257.05357,577.8979 L 252.85714,597.36218 C 251.33265,600.69722 246.40711,599.23131 247.41071,595.66575 L 251.33929,581.0229 L 242.58929,569.7729 C 240.57526,566.67766 240.82587,566.52885 242.76786,564.23718 z"
         id="path3188"
         sodipodi:nodetypes="ccccccccccccc"/>
      <path
         d="M 286.96429,597.8979 L 287.14286,579.68361 L 290.98214,572.80861 C 291.67021,571.57649 294.15284,572.11881 293.39286,573.79075 L 291.60714,577.71932 C 290.66711,579.78739 290.65426,579.72765 291.42857,583.25504 L 294.64286,597.8979 C 295.27801,600.79135 300.71653,600.52752 300.26786,597.45147 L 296.96429,583.70147 C 296.55462,581.99637 296.96444,580.38621 297.5,578.61218 L 298.92857,573.88004 L 303.30357,575.13004 L 302.85714,561.38004 L 289.375,559.41575 L 288.48215,570.3979 L 286.16072,570.66575 L 282.05358,576.46933 C 280.89852,578.10149 281.25,578.17594 281.25,580.57647 L 281.25,598.07647 C 281.25,600.95382 286.93638,600.74446 286.96429,597.8979 z"
         id="path3190"
         sodipodi:nodetypes="ccssssssssccccccssss"/>
      <ellipse
         id="path3192"
         cx="268.75" cy="541.64789"
         rx="6.9642859" ry="6.4285712"
         transform="matrix(0.7897436,0,0,0.8555556,73.650696,72.78579)"/>
      <path
         d="M 289.82143,557.45147 L 302.32143,556.29075 L 302.14286,529.68361 C 302.14136,525.19513 301.74671,525.2272 297.5,524.50504 L 286.875,522.80861 C 283.89169,522.33228 283.29769,527.03878 285.98215,527.54075 L 296.96429,529.59432 L 296.25,539.05861 L 284.55357,545.57647 L 283.83929,553.16575 L 279.91072,548.5229 C 278.04131,546.30632 273.52369,549.13962 275.71429,551.82647 L 282.23214,560.57647 C 284.40164,563.01877 286.84996,562.68762 286.96429,560.57647 L 287.5,554.86218 z"
         id="path3194"
         sodipodi:nodetypes="ccccssccccccsscc"/>
    </g>
    <path
       sodipodi:nodetypes="ccc"
       id="path2434"
       d="M 248.05122,510.13997 C 251.31251,515.30583 256.66172,519.6057 268.79782,521.27869 C 263.99388,517.06907 259.32683,512.57445 248.05122,510.13997 z"
       style="fill:#000000;stroke:#000000;stroke-width:0.519;stroke-linecap:round;stroke-linejoin:round"/>
    <path
       sodipodi:nodetypes="cccss"
       id="path2442"
       d="M 257.12365,508.55235 C 255.33605,510.20476 254.43532,511.56111 253.51615,513.74936 L 262.86996,518.5117 C 263.6668,516.9 265.65849,515.20441 264.68315,513.29858 C 262.35619,508.75162 258.78873,507.01319 257.12365,508.55235 z"
       style="fill:#000000;stroke:#000000;stroke-width:0.21894838px;stroke-linecap:butt;stroke-linejoin:miter"/>
    <path
       sodipodi:nodetypes="ccscscsccc"
       id="path3227"
       d="M 277.9781,536.0736 C 275.23756,544.82585 264.94956,544.55702 261.32632,566.56468 C 263.80709,563.29771 264.82177,566.79514 266.50489,566.74325 C 268.6691,566.67653 270.45566,564.05955 272.21918,566.74325 C 274.72302,563.94417 275.7798,567.03574 277.75489,566.74325 C 280.2494,566.37383 282.66427,563.3291 285.25489,566.74325 C 288.64589,563.46607 290.67761,566.51255 293.2906,566.74325 C 295.32966,566.92327 296.0287,563.26341 297.93346,566.3861 C 297.32015,551.80698 292.48553,552.46115 291.42676,538.17182 z"/>
  </g>
</svg>